<svg version="1.2" xmlns="http://www.w3.org/2000/svg" viewBox="0 0 300 100" width="300" height="100">
	<title>Novo Projeto</title>
	<style>
		.s0 { fill: #9966cc } 
		.s1 { fill: #b678f4 } 
	</style>
	<path id="TOPFilmes" class="s0" aria-label="TOPFilmes"  d="m19.9 67c1.1 0 1.6-0.5 1.6-1.6v-21.4h6.4c1.1 0 1.6-0.5 1.6-1.6v-5.3c0-1.1-0.5-1.6-1.6-1.6h-23.1c-1.1 0-1.6 0.5-1.6 1.6v5.3c0 1.1 0.5 1.6 1.6 1.6h6.4v21.4c0 1.1 0.5 1.6 1.6 1.6zm-3.8-3.9v-23.2h-8.9v-0.4h18.3v0.4h-8.9v23.2zm44-4.4v-14.9c0-5.3-2.6-8.9-13.5-8.9-11 0-13.6 3.6-13.6 8.9v14.9c0 5.4 2.6 9 13.6 9 10.9 0 13.5-3.6 13.5-9zm-4.8-1c0 3.6-2 5.9-8.8 5.9-6.9 0-8.8-2.3-8.8-5.9v-12.9c0-3.5 1.9-5.9 8.8-5.9 6.8 0 8.8 2.4 8.8 5.9zm-17.2 0c0 3.3 1.9 5.5 8.4 5.5 6.5 0 8.4-2.2 8.4-5.5v-12.9c0-3.3-1.9-5.4-8.4-5.4-6.5 0-8.4 2.1-8.4 5.4zm4.8-0.5v-11.8c0-1.1 0.5-2 3.7-2 3.1 0 3.6 0.9 3.6 2v11.8c0 1.1-0.5 2-3.6 2-3.2 0-3.7-0.9-3.7-2zm31.1 9.8c1.1 0 1.6-0.5 1.6-1.6v-7.2h5c8 0 10.3-3.5 10.3-8.6v-5.6c0-5-2.3-8.5-10.3-8.5h-13.4c-1.1 0-1.5 0.5-1.5 1.6v28.3c0 1.1 0.4 1.6 1.5 1.6zm6-12.6h-9v8.7h-0.4v-23.6h9.4c5.5 0 6.6 2.5 6.6 5.9v3.2c0 3.4-1.1 5.8-6.6 5.8zm-9-0.4h9c5.2 0 6.2-2.2 6.2-5.4v-3.2c0-3.2-1-5.5-6.2-5.5h-9zm4.5-10.3h4c1.7 0 2 1 2 2.1v2.3c0 1.2-0.3 2.2-2 2.2h-4z"/>
	<path id="TOPFilmes" class="s1" aria-label="TOPFilmes"  d="m102.7 67c0.9 0 1.4-0.4 1.4-1.4v-7.7h6.7c1 0 1.5-0.4 1.5-1.4v-4.7c0-0.9-0.5-1.4-1.5-1.4h-6.7v-4h9.9c1 0 1.4-0.5 1.4-1.4v-4.7c0-1-0.4-1.4-1.4-1.4h-17.4c-1 0-1.4 0.4-1.4 1.4v25.3c0 1 0.4 1.4 1.4 1.4zm-3.2-3.5v-21.1h12.5v0.4h-12.1v11.2h8.9v0.4h-8.9v9.1zm20.6 3.5h16.7c0.9 0 1.4-0.4 1.4-1.4v-4.6c0-1-0.5-1.4-1.4-1.4h-3.8v-13.2h3.8c0.9 0 1.4-0.4 1.4-1.4v-4.7c0-1-0.5-1.4-1.4-1.4h-16.7c-0.9 0-1.4 0.4-1.4 1.4v4.7c0 1 0.5 1.4 1.4 1.4h3.9v13.2h-3.9c-0.9 0-1.4 0.4-1.4 1.4v4.6c0 1 0.5 1.4 1.4 1.4zm14.5-3.5h-12.4v-0.4h6.1v-20.3h-6.1v-0.4h12.4v0.4h-5.9v20.3h5.9zm29.6 3.5c1 0 1.4-0.4 1.4-1.4v-12.3c0-1-0.4-1.4-1.4-1.4h-5.6c-1 0-1.5 0.4-1.5 1.4v6.3h-5.3v-19.3c0-0.9-0.4-1.4-1.4-1.4h-6c-1 0-1.4 0.5-1.4 1.4v25.3c0 1 0.4 1.4 1.4 1.4zm-17-3.5v-21.1h0.3v20.7h13.6v-7.7h0.4v8.1zm36.6-11.5c0.9 0 1.1-0.3 2-1.6l4.7-7.3c0.3-0.5 0.7-0.7 1.2-0.7h0.6c0.8 0 1.1 0.4 1.1 1.2v19.9h-0.4v-19.9c0-0.4-0.1-0.8-0.7-0.8h-0.6c-0.3 0-0.5 0.1-0.9 0.6l-4.7 7.2c-0.9 1.4-1.2 1.8-2.3 1.8-1.1 0-1.4-0.4-2.3-1.8l-4.8-7.2c-0.3-0.5-0.6-0.6-0.9-0.6h-0.6c-0.5 0-0.6 0.4-0.6 0.8v19.9h-0.4v-19.9c0-0.8 0.3-1.2 1-1.2h0.7c0.4 0 0.8 0.2 1.1 0.7l4.8 7.3c0.9 1.3 1.1 1.6 2 1.6zm-6.5 15c0.9 0 1.4-0.4 1.4-1.4v-13.7l2.3 4.2c0.4 0.9 1 1.3 2 1.3h1.6c1 0 1.6-0.4 2.1-1.3l2.3-4.2v13.7c0 1 0.4 1.4 1.4 1.4h6c1 0 1.4-0.4 1.4-1.4v-25.3c0-0.9-0.4-1.4-1.4-1.4h-6.3c-0.9 0-1.4 0.3-1.8 1.2l-3.5 6.4c-0.3 0.4-0.4 0.6-0.7 0.6h-0.4c-0.3 0-0.4-0.2-0.7-0.6l-3.5-6.4c-0.4-0.9-0.9-1.2-1.8-1.2h-6.2c-1 0-1.4 0.5-1.4 1.4v25.3c0 1 0.4 1.4 1.4 1.4zm45.4 0c0.9 0 1.4-0.4 1.4-1.4v-4.6c0-0.9-0.5-1.4-1.4-1.4h-10.8v-3.3h7.6c1 0 1.4-0.4 1.4-1.4v-4.2c0-1-0.4-1.4-1.4-1.4h-7.6v-3h10.8c0.9 0 1.4-0.4 1.4-1.4v-4.6c0-0.9-0.5-1.4-1.4-1.4h-18.1c-1 0-1.4 0.5-1.4 1.4v25.3c0 1 0.4 1.4 1.4 1.4zm-2.1-3.9v0.4h-13.2v-21.1h13.2v0.4h-12.8v9.8h9.6v0.4h-9.6v10.1zm21.1 3.9c5.1 0 8.1-2.4 8.1-6.9v-4c0-4.4-2.4-6-6.1-6.5l-5.8-0.8c-0.6-0.1-1-0.5-1-1.3 0-0.7 0.4-1.1 1-1.1h9.1c1 0 1.4-0.4 1.4-1.4v-4.7c0-0.9-0.4-1.4-1.4-1.4h-10.9c-5.1 0-8.1 2.4-8.1 6.9v4.1c0 4.4 2.4 5.9 6.1 6.5l5.8 0.8c0.7 0.1 1 0.4 1 1.3 0 0.6-0.3 1.1-1 1.1h-10.5c-1 0-1.4 0.5-1.4 1.4v4.6c0 1 0.4 1.4 1.4 1.4zm3.2-24.6v0.4h-8.7c-2.2 0-3.6 1.4-3.6 3.2v3.2c0 1.8 0.8 2.4 2 2.6l8.2 1.7c1.6 0.3 2.7 1.1 2.7 3.8v2.3c0 2.3-1.6 3.9-4.3 3.9h-9.7v-0.4h9.7c2.4 0 3.9-1.5 3.9-3.5v-2.3c0-2.5-0.9-3.1-2.3-3.4l-8.3-1.7c-1.3-0.3-2.3-0.9-2.3-3v-3.2c0-2.1 1.6-3.6 4-3.6z"/>
</svg>